<?xml version="1.0" encoding="utf-8"?>
<!-- Generator: Adobe Illustrator 27.5.0, SVG Export Plug-In . SVG Version: 6.00 Build 0)  -->
<svg version="1.1" id="Layer_1" xmlns="http://www.w3.org/2000/svg" xmlns:xlink="http://www.w3.org/1999/xlink" x="0px" y="0px"
	 viewBox="0 0 510 292" style="enable-background:new 0 0 510 292;" xml:space="preserve">
<path d="M106.4,189.6c-4.9,7.2-11.7,12.8-20.2,16.8c-8.4,3.9-17.9,5.8-28.6,5.8c-11.7,0-22.5-2.1-32.4-6.4
	c-9.9-4.4-18.1-10.7-24.6-19L22.2,167c3.5,6,8.1,10.8,14,14.4c6,3.6,12.9,5.4,20.6,5.4s14.1-1.7,19-5.2c5.1-3.6,7.6-8.3,7.6-14.2
	c0-4.4-0.9-7.7-2.8-10c-1.7-2.3-3.9-3.9-6.4-4.8c-2.4-1.1-4.6-1.7-6.6-2c-2.9-0.7-6.1-1.2-9.6-1.6c-3.3-0.5-6.7-1.1-10-1.6
	c-1.3-0.1-3.5-0.5-6.6-1.2c-3.1-0.8-6.5-2-10.2-3.6c-3.7-1.7-7.4-4.1-11-7c-3.5-2.9-6.3-6.7-8.6-11.2c-2.3-4.7-3.4-10.3-3.4-17
	c0-8.7,2.3-16.3,6.8-23s10.7-11.9,18.6-15.6c7.9-3.9,16.8-5.8,26.8-5.8c10.5,0,20.1,2.1,28.8,6.2c8.8,4,16.1,9.5,21.8,16.6
	l-20.2,18.4c-2.9-5.3-7.1-9.5-12.4-12.4c-5.2-2.9-10.9-4.4-17.2-4.4c-6.8,0-12.3,1.7-16.6,5c-4.3,3.2-6.4,7.5-6.4,12.8
	c0,3.6,0.9,6.4,2.6,8.4c1.9,2,4.1,3.5,6.6,4.4c2.5,0.8,4.7,1.4,6.6,1.8c2.9,0.4,6.2,0.9,9.8,1.4c3.6,0.5,6.9,1.1,9.8,1.6
	c1.2,0.3,3.3,0.7,6.4,1.4s6.5,1.9,10.2,3.6c3.9,1.7,7.6,4.1,11.2,7.2s6.5,7,8.8,11.8c2.4,4.8,3.6,10.7,3.6,17.8
	C113.8,174.1,111.3,182.4,106.4,189.6z"/>
<path d="M421.8,66.2H452v118h57.8V209h-88V66.2z"/>
<path d="M345.9,13c-1.2-0.5-2.5-1-3.8-1.4c-8.7-3.2-18.4-4.8-29.1-4.8h-90.3c-10.7,0-20.3,1.6-29.1,4.8c-1.3,0.4-2.5,0.9-3.8,1.4
	H345.9z"/>
<path d="M363.8,34c-5.1-3.6-10.9-6.5-17.3-8.8c-9.2-3.4-19.5-5-30.8-5h-95.6c-11.3,0-21.5,1.7-30.8,5c-6.4,2.2-12.2,5.2-17.4,8.8
	H363.8z"/>
<path d="M192.1,279.2c0.5,0.2,1,0.4,1.6,0.6c8.7,3.1,18.4,4.6,29.1,4.6H313c10.7,0,20.3-1.5,29.1-4.6c0.5-0.2,1-0.4,1.6-0.6H192.1z"
	/>
<path d="M169,256.2c5.9,4.5,12.7,8.2,20.3,10.9c9.2,3.2,19.5,4.9,30.8,4.9h95.6c11.3,0,21.5-1.6,30.8-4.9
	c7.6-2.8,14.4-6.4,20.2-10.9H169z"/>
<path d="M379.5,65c-1.2-1.2-2.4-2.3-3.6-3.5c-7-6.3-15.3-11.2-25.1-14.6c-9.8-3.5-20.6-5.3-32.5-5.3H217.5
	c-11.9,0-22.7,1.8-32.5,5.3c-9.8,3.4-18.2,8.3-25.3,14.6c-1.2,1.1-2.4,2.3-3.6,3.5H379.5z"/>
<path d="M137,117c4-8.8,9.7-16.5,17-23c7.5-6.7,16.3-11.8,26.6-15.4c10.3-3.7,21.7-5.6,34.2-5.6H321c12.5,0,23.9,1.9,34.2,5.6
	c10.3,3.6,19.1,8.7,26.4,15.4c7.5,6.5,13.2,14.2,17.2,23s6,18.3,6,28.6c0,10.3-2,19.8-6,28.6s-9.7,16.5-17.2,23.2
	c-7.3,6.5-16.1,11.7-26.4,15.4c-10.3,3.6-21.7,5.4-34.2,5.4H214.8c-12.5,0-23.9-1.8-34.2-5.4c-10.3-3.7-19.1-8.9-26.6-15.4
	c-7.3-6.7-13-14.4-17-23.2s-6-18.3-6-28.6C131,135.3,133,125.8,137,117z M170.6,168.8c4.3,6.8,10.2,12.1,17.8,16
	c7.7,3.9,16.9,5.8,27.4,5.8H320c10.5,0,19.6-1.9,27.2-5.8c7.7-3.9,13.7-9.2,17.8-16c4.3-6.8,6.4-14.5,6.4-23.2
	c0-8.7-2.1-16.4-6.4-23.2c-4.1-6.8-10.1-12.1-17.8-16c-7.6-3.9-16.7-5.8-27.2-5.8H215.8c-10.5,0-19.7,1.9-27.4,5.8
	c-7.6,3.9-13.5,9.2-17.8,16c-4.1,6.8-6.2,14.5-6.2,23.2C164.4,154.3,166.5,162,170.6,168.8z"/>
<path d="M157,226.2c0.9,0.9,1.8,1.8,2.7,2.6c7.1,6.2,15.5,11.1,25.3,14.6c9.8,3.4,20.6,5.1,32.5,5.1h100.9c11.9,0,22.7-1.7,32.5-5.1
	c9.8-3.5,18.1-8.4,25.1-14.6c1-0.9,1.9-1.7,2.8-2.6H157z"/>
</svg>
